<svg id="Layer_1" data-name="Layer 1" xmlns="http://www.w3.org/2000/svg" viewBox="0 0 216.26 80.7"><defs><style>.cls-1{fill:#56c2f0;}</style></defs><path class="cls-1" d="M16.3,24.67c-.4,0-.5-.2-.3-.5l2.2-2.8a1.5,1.5,0,0,1,1.2-.5H57c.4,0,.5.3.3.6l-1.8,2.7a1.52,1.52,0,0,1-1.1.6ZM.4,34.27c-.4,0-.5-.2-.3-.5l2.2-2.9a1.5,1.5,0,0,1,1.2-.5H51.6a.46.46,0,0,1,.5.6l-.9,2.6a.87.87,0,0,1-.9.6ZM25.9,44c-.4,0-.5-.3-.3-.6l1.5-2.6a1.36,1.36,0,0,1,1.1-.6h21c.4,0,.6.3.6.7l-.2,2.5a.75.75,0,0,1-.7.7Zm109.4-21.2c-6.6,1.7-11.2,2.9-17.7,4.6-1.6.4-1.7.5-3.1-1.1a14.07,14.07,0,0,0-5-4c-6.6-3.3-13.1-2.3-19.1,1.6a22.36,22.36,0,0,0-10.8,20,16.62,16.62,0,0,0,14.2,16.6c7.2.9,13.2-1.6,17.9-7,.9-1.2,1.8-2.4,2.9-3.9H94.2c-2.2,0-2.7-1.4-2-3.2,1.4-3.3,3.9-8.8,5.4-11.5a2.93,2.93,0,0,1,2.6-1.7h38.4c-.2,2.9-.2,5.7-.6,8.5a45.78,45.78,0,0,1-8.6,20.7c-7.6,10-17.5,16.2-30.1,17.9-10.3,1.4-19.9-.6-28.4-7a33.25,33.25,0,0,1-13.4-23.4c-1.4-11.5,2-21.8,9-30.9A46.75,46.75,0,0,1,96,.77C105.9-1,115.4.17,123.9,6a32.9,32.9,0,0,1,12.2,14.9C137,21.87,136.6,22.37,135.3,22.77Z"/><path class="cls-1" d="M170.2,81c-9.6-.2-18.4-2.9-25.7-9.3a33.32,33.32,0,0,1-11.4-20.4c-1.9-11.9,1.4-22.5,8.5-31.8,7.7-10.1,17-15.4,29.5-17.6,10.8-1.9,20.9-.8,30,5.4,8.3,5.7,13.5,13.4,14.9,23.5,1.8,14.2-2.3,25.8-12.1,35.7A48.21,48.21,0,0,1,178.6,80a83.42,83.42,0,0,1-8.4,1Zm25.1-42.5A32.74,32.74,0,0,0,195,35c-1.9-10.4-11.5-16.3-21.5-14-9.8,2.2-16.1,8.4-18.4,18.4a17.29,17.29,0,0,0,9.7,19.9,19.61,19.61,0,0,0,17.2-.6c8.2-4.4,12.8-11.2,13.3-20.2Z"/></svg>